<svg width="15" height="15" viewBox="0 0 15 15" fill="none" xmlns="http://www.w3.org/2000/svg">
<path d="M0.979187 1.36462C0.979187 1.20715 1.04174 1.05613 1.15309 0.944779C1.26444 0.83343 1.41546 0.770874 1.57294 0.770874H2.01469C2.76677 0.770874 3.21802 1.27675 3.47531 1.747C3.6471 2.0605 3.7714 2.42387 3.86877 2.75321C3.89511 2.75113 3.92152 2.75007 3.94794 2.75004H13.8422C14.4993 2.75004 14.9743 3.37862 14.7938 4.01117L13.3466 9.08496C13.2169 9.54005 12.9424 9.94047 12.5647 10.2256C12.187 10.5107 11.7267 10.665 11.2534 10.6651H6.5446C6.06762 10.6651 5.60383 10.5085 5.22452 10.2193C4.84521 9.93011 4.57137 9.52434 4.4451 9.06437L3.84344 6.86988L2.84594 3.50687L2.84515 3.50054C2.72165 3.05167 2.60606 2.63129 2.43348 2.31779C2.26802 2.013 2.13502 1.95837 2.01548 1.95837H1.57294C1.41546 1.95837 1.26444 1.89582 1.15309 1.78447C1.04174 1.67312 0.979187 1.5221 0.979187 1.36462ZM4.99531 6.58171L5.58985 8.75008C5.7086 9.17917 6.09889 9.47763 6.5446 9.47763H11.2534C11.4685 9.47762 11.6778 9.40753 11.8495 9.27797C12.0212 9.14841 12.146 8.96643 12.205 8.75958L13.5801 3.93754H4.21315L4.98423 6.53975L4.99531 6.58171Z" fill="url(#paint0_linear_51_52)"/>
<path d="M7.70835 13.0417C7.70835 13.4616 7.54154 13.8644 7.24461 14.1613C6.94767 14.4582 6.54495 14.625 6.12502 14.625C5.70509 14.625 5.30237 14.4582 5.00543 14.1613C4.7085 13.8644 4.54169 13.4616 4.54169 13.0417C4.54169 12.6218 4.7085 12.2191 5.00543 11.9221C5.30237 11.6252 5.70509 11.4584 6.12502 11.4584C6.54495 11.4584 6.94767 11.6252 7.24461 11.9221C7.54154 12.2191 7.70835 12.6218 7.70835 13.0417V13.0417ZM6.52085 13.0417C6.52085 12.9367 6.47915 12.836 6.40492 12.7618C6.33068 12.6876 6.23 12.6459 6.12502 12.6459C6.02004 12.6459 5.91936 12.6876 5.84512 12.7618C5.77089 12.836 5.72919 12.9367 5.72919 13.0417C5.72919 13.1467 5.77089 13.2474 5.84512 13.3216C5.91936 13.3958 6.02004 13.4375 6.12502 13.4375C6.23 13.4375 6.33068 13.3958 6.40492 13.3216C6.47915 13.2474 6.52085 13.1467 6.52085 13.0417Z" fill="url(#paint1_linear_51_52)"/>
<path d="M13.25 13.0417C13.25 13.4616 13.0832 13.8644 12.7863 14.1613C12.4894 14.4582 12.0866 14.625 11.6667 14.625C11.2468 14.625 10.8441 14.4582 10.5471 14.1613C10.2502 13.8644 10.0834 13.4616 10.0834 13.0417C10.0834 12.6218 10.2502 12.2191 10.5471 11.9221C10.8441 11.6252 11.2468 11.4584 11.6667 11.4584C12.0866 11.4584 12.4894 11.6252 12.7863 11.9221C13.0832 12.2191 13.25 12.6218 13.25 13.0417V13.0417ZM12.0625 13.0417C12.0625 12.9367 12.0208 12.836 11.9466 12.7618C11.8724 12.6876 11.7717 12.6459 11.6667 12.6459C11.5617 12.6459 11.461 12.6876 11.3868 12.7618C11.3126 12.836 11.2709 12.9367 11.2709 13.0417C11.2709 13.1467 11.3126 13.2474 11.3868 13.3216C11.461 13.3958 11.5617 13.4375 11.6667 13.4375C11.7717 13.4375 11.8724 13.3958 11.9466 13.3216C12.0208 13.2474 12.0625 13.1467 12.0625 13.0417Z" fill="url(#paint2_linear_51_52)"/>
<defs>
<linearGradient id="paint0_linear_51_52" x1="7.90579" y1="0.770874" x2="7.90579" y2="10.6651" gradientUnits="userSpaceOnUse">
<stop stop-color="#1389FF"/>
<stop offset="1" stop-color="#1DB4E7"/>
</linearGradient>
<linearGradient id="paint1_linear_51_52" x1="6.12502" y1="11.4584" x2="6.12502" y2="14.625" gradientUnits="userSpaceOnUse">
<stop stop-color="#1389FF"/>
<stop offset="1" stop-color="#1DB4E7"/>
</linearGradient>
<linearGradient id="paint2_linear_51_52" x1="11.6667" y1="11.4584" x2="11.6667" y2="14.625" gradientUnits="userSpaceOnUse">
<stop stop-color="#1389FF"/>
<stop offset="1" stop-color="#1DB4E7"/>
</linearGradient>
</defs>
</svg>
